<svg version="1.1" xmlns="http://www.w3.org/2000/svg" xmlns:xlink="http://www.w3.org/1999/xlink" width="1568.8829345703125" height="920"><defs/><g><g transform="translate(-33.1170654296875,-6) scale(1,1)"><rect fill="#C0C0C0" stroke="none" x="587.974609375" y="27" width="174.79443359375" height="57" opacity="0.2"/></g><g transform="translate(-33.1170654296875,-6) scale(1,1)"><rect fill="#ffffff" stroke="none" x="580.974609375" y="20" width="174.79443359375" height="57"/></g><g transform="translate(-33.1170654296875,-6) scale(1,1)"><path fill="none" stroke="#000000" d="M 580.974609375 20 L 755.76904296875 20 L 755.76904296875 77 L 580.974609375 77 L 580.974609375 20 Z Z" stroke-miterlimit="10"/></g><g transform="translate(-33.1170654296875,-6) scale(1,1)"><path fill="none" stroke="#000000" d="M 580.974609375 45 L 755.76904296875 45" stroke-miterlimit="10"/></g><g transform="translate(-33.1170654296875,-6) scale(1,1)"><path fill="none" stroke="#000000" d="M 580.974609375 68 L 755.76904296875 68" stroke-miterlimit="10"/></g><g transform="translate(-33.1170654296875,-6) scale(1,1)"><g><path fill="none" stroke="none"/><text fill="#000000" stroke="none" font-family="Arial" font-size="13px" font-style="normal" font-weight="bold" text-decoration="none" x="645.371826171875" y="39.5">SphExa</text></g></g><g transform="translate(-33.1170654296875,-6) scale(1,1)"><g><path fill="none" stroke="none"/><text fill="#000000" stroke="none" font-family="Arial" font-size="13px" font-style="normal" font-weight="normal" text-decoration="none" x="585.974609375" y="62.5">-m_simulation: Simulation</text></g></g><g transform="translate(-33.1170654296875,-6) scale(1,1)"><rect fill="#C0C0C0" stroke="none" x="350.1158447265625" y="115" width="224.85205078125" height="87" opacity="0.2"/></g><g transform="translate(-33.1170654296875,-6) scale(1,1)"><rect fill="#ffffff" stroke="none" x="343.1158447265625" y="108" width="224.85205078125" height="87"/></g><g transform="translate(-33.1170654296875,-6) scale(1,1)"><path fill="none" stroke="#000000" d="M 343.1158447265625 108 L 567.9678955078125 108 L 567.9678955078125 195 L 343.1158447265625 195 L 343.1158447265625 108 Z Z" stroke-miterlimit="10"/></g><g transform="translate(-33.1170654296875,-6) scale(1,1)"><path fill="none" stroke="#000000" d="M 343.1158447265625 133 L 567.9678955078125 133" stroke-miterlimit="10"/></g><g transform="translate(-33.1170654296875,-6) scale(1,1)"><path fill="none" stroke="#000000" d="M 343.1158447265625 186 L 567.9678955078125 186" stroke-miterlimit="10"/></g><g transform="translate(-33.1170654296875,-6) scale(1,1)"><g><path fill="none" stroke="none"/><text fill="#000000" stroke="none" font-family="Arial" font-size="13px" font-style="normal" font-weight="bold" text-decoration="none" x="425.0418701171875" y="127.5">Simulation</text></g></g><g transform="translate(-33.1170654296875,-6) scale(1,1)"><g><path fill="none" stroke="none"/><text fill="#000000" stroke="none" font-family="Arial" font-size="13px" font-style="normal" font-weight="normal" text-decoration="none" x="348.1158447265625" y="150.5">-m_models: Model</text></g></g><g transform="translate(-33.1170654296875,-6) scale(1,1)"><g><path fill="none" stroke="none"/><text fill="#000000" stroke="none" font-family="Arial" font-size="13px" font-style="normal" font-weight="normal" text-decoration="none" x="348.1158447265625" y="165.5">-m_loadBalancing: LoadBalancing</text></g></g><g transform="translate(-33.1170654296875,-6) scale(1,1)"><g><path fill="none" stroke="none"/><text fill="#000000" stroke="none" font-family="Arial" font-size="13px" font-style="normal" font-weight="normal" text-decoration="none" x="348.1158447265625" y="180.5">-m_faultTolerance: FaultTolerance</text></g></g><g transform="translate(-33.1170654296875,-6) scale(1,1)"><rect fill="#C0C0C0" stroke="none" x="675.891357421875" y="207" width="206.970703125" height="175" opacity="0.2"/></g><g transform="translate(-33.1170654296875,-6) scale(1,1)"><rect fill="#ffffff" stroke="none" x="668.891357421875" y="200" width="206.970703125" height="175"/></g><g transform="translate(-33.1170654296875,-6) scale(1,1)"><path fill="none" stroke="#000000" d="M 668.891357421875 200 L 875.862060546875 200 L 875.862060546875 375 L 668.891357421875 375 L 668.891357421875 200 Z Z" stroke-miterlimit="10"/></g><g transform="translate(-33.1170654296875,-6) scale(1,1)"><path fill="none" stroke="#000000" d="M 668.891357421875 225 L 875.862060546875 225" stroke-miterlimit="10"/></g><g transform="translate(-33.1170654296875,-6) scale(1,1)"><path fill="none" stroke="#000000" d="M 668.891357421875 323 L 875.862060546875 323" stroke-miterlimit="10"/></g><g transform="translate(-33.1170654296875,-6) scale(1,1)"><g><path fill="none" stroke="none"/><text fill="#000000" stroke="none" font-family="Arial" font-size="13px" font-style="normal" font-weight="bold" text-decoration="none" x="754.876708984375" y="219.5">Model</text></g></g><g transform="translate(-33.1170654296875,-6) scale(1,1)"><g><path fill="none" stroke="none"/><text fill="#000000" stroke="none" font-family="Arial" font-size="13px" font-style="normal" font-weight="normal" text-decoration="none" x="673.891357421875" y="242.5">-m_timeScheme: TimeScheme</text></g></g><g transform="translate(-33.1170654296875,-6) scale(1,1)"><g><path fill="none" stroke="none"/><text fill="#000000" stroke="none" font-family="Arial" font-size="13px" font-style="normal" font-weight="normal" text-decoration="none" x="673.891357421875" y="257.5">-m_physics: list&lt;Physics&gt;</text></g></g><g transform="translate(-33.1170654296875,-6) scale(1,1)"><g><path fill="none" stroke="none"/><text fill="#000000" stroke="none" font-family="Arial" font-size="13px" font-style="normal" font-weight="normal" text-decoration="none" x="673.891357421875" y="272.5">-m_pressure: RealField</text></g></g><g transform="translate(-33.1170654296875,-6) scale(1,1)"><g><path fill="none" stroke="none"/><text fill="#000000" stroke="none" font-family="Arial" font-size="13px" font-style="normal" font-weight="normal" text-decoration="none" x="673.891357421875" y="287.5">-m_velocity: RealVectorField</text></g></g><g transform="translate(-33.1170654296875,-6) scale(1,1)"><g><path fill="none" stroke="none"/><text fill="#000000" stroke="none" font-family="Arial" font-size="13px" font-style="normal" font-weight="normal" text-decoration="none" x="673.891357421875" y="302.5">-m_position: RealVectorField</text></g></g><g transform="translate(-33.1170654296875,-6) scale(1,1)"><g><path fill="none" stroke="none"/><text fill="#000000" stroke="none" font-family="Arial" font-size="13px" font-style="normal" font-weight="normal" text-decoration="none" x="673.891357421875" y="317.5">-m_volume: RealField</text></g></g><g transform="translate(-33.1170654296875,-6) scale(1,1)"><g><path fill="none" stroke="none"/><text fill="#000000" stroke="none" font-family="Arial" font-size="13px" font-style="normal" font-weight="normal" text-decoration="none" x="673.891357421875" y="340.5">+iterate()</text></g></g><g transform="translate(-33.1170654296875,-6) scale(1,1)"><g><path fill="none" stroke="none"/><text fill="#000000" stroke="none" font-family="Arial" font-size="13px" font-style="normal" font-weight="normal" text-decoration="none" x="673.891357421875" y="355.5">+addStep()</text></g></g><g transform="translate(-33.1170654296875,-6) scale(1,1)"><g><path fill="none" stroke="none"/><text fill="#000000" stroke="none" font-family="Arial" font-size="13px" font-style="normal" font-weight="normal" text-decoration="none" x="673.891357421875" y="370.5">+setTimeScheme()</text></g></g><g transform="translate(-33.1170654296875,-6) scale(1,1)"><path fill="none" stroke="#000000" d="M 449 107 Q 447 93 580 66" stroke-miterlimit="10"/></g><g transform="translate(-33.1170654296875,-6) scale(1,1)"><path fill="#FFFFFF" stroke="none" d="M 570.8779601512454 72.1472261222224 L 580 66 L 569.2029984881812 63.89648904120227 L 558.4397849940137 70.37688575309495"/></g><g transform="translate(-33.1170654296875,-6) scale(1,1)"><path fill="none" stroke="#000000" d="M 570.8779601512454 72.1472261222224 L 580 66 L 569.2029984881812 63.89648904120227 L 558.4397849940137 70.37688575309495 L 570.8779601512454 72.1472261222224" stroke-miterlimit="10"/></g><g transform="translate(-33.1170654296875,-6) scale(1,1)"><g><path fill="none" stroke="none"/><text fill="#000000" stroke="none" font-family="Arial" font-size="13px" font-style="normal" font-weight="normal" text-decoration="none" x="454.614990234375" y="89.5">1</text></g></g><g transform="translate(-33.1170654296875,-6) scale(1,1)"><path fill="none" stroke="#000000" d="M 668 219 Q 655 211 569 185" stroke-miterlimit="10"/></g><g transform="translate(-33.1170654296875,-6) scale(1,1)"><path fill="#FFFFFF" stroke="none" d="M 579.9460187496654 183.9115729092064 L 569 185 L 577.5096382616108 191.9703699081562 L 590.0586514005694 191.3665690280791"/></g><g transform="translate(-33.1170654296875,-6) scale(1,1)"><path fill="none" stroke="#000000" d="M 579.9460187496654 183.9115729092064 L 569 185 L 577.5096382616108 191.9703699081562 L 590.0586514005694 191.3665690280791 L 579.9460187496654 183.9115729092064" stroke-miterlimit="10"/></g><g transform="translate(-33.1170654296875,-6) scale(1,1)"><g><path fill="none" stroke="none"/><text fill="#000000" stroke="none" font-family="Arial" font-size="13px" font-style="normal" font-weight="normal" text-decoration="none" x="652" y="203.5">1</text></g></g><g transform="translate(-33.1170654296875,-6) scale(1,1)"><path fill="#ffffff" stroke="none" d="M 208 112 L 317 112 L 327 122 L 327 161 L 208 161 L 208 112"/></g><g transform="translate(-33.1170654296875,-6) scale(1,1)"><path fill="none" stroke="#000000" d="M 208 112 L 317 112 L 327 122 L 327 161 L 208 161 L 208 112 L 208 112" stroke-miterlimit="10"/></g><g transform="translate(-33.1170654296875,-6) scale(1,1)"><path fill="none" stroke="#000000" d="M 317 112 L 317 122 L 327 122 L 317 112" stroke-miterlimit="10"/></g><g transform="translate(-33.1170654296875,-6) scale(1,1)"><g><path fill="none" stroke="none"/><text fill="#000000" stroke="none" font-family="Arial" font-size="13px" font-style="normal" font-weight="normal" text-decoration="none" x="213" y="130">Handle time loop</text><text fill="#000000" stroke="none" font-family="Arial" font-size="13px" font-style="normal" font-weight="normal" text-decoration="none" x="213" y="143">(like a conductor)</text></g></g><g transform="translate(-33.1170654296875,-6) scale(1,1)"><path fill="none" stroke="#000000" d="M 329 142 L 342 143" stroke-miterlimit="10" stroke-dasharray="3"/></g><g transform="translate(-33.1170654296875,-6) scale(1,1)"><rect fill="#C0C0C0" stroke="none" x="459.6932373046875" y="428" width="97.45458984375" height="57" opacity="0.2"/></g><g transform="translate(-33.1170654296875,-6) scale(1,1)"><rect fill="#ffffff" stroke="none" x="452.6932373046875" y="421" width="97.45458984375" height="57"/></g><g transform="translate(-33.1170654296875,-6) scale(1,1)"><path fill="none" stroke="#000000" d="M 452.6932373046875 421 L 550.1478271484375 421 L 550.1478271484375 478 L 452.6932373046875 478 L 452.6932373046875 421 Z Z" stroke-miterlimit="10"/></g><g transform="translate(-33.1170654296875,-6) scale(1,1)"><path fill="none" stroke="#000000" d="M 452.6932373046875 446 L 550.1478271484375 446" stroke-miterlimit="10"/></g><g transform="translate(-33.1170654296875,-6) scale(1,1)"><path fill="none" stroke="#000000" d="M 452.6932373046875 456 L 550.1478271484375 456" stroke-miterlimit="10"/></g><g transform="translate(-33.1170654296875,-6) scale(1,1)"><g><path fill="none" stroke="none"/><text fill="#000000" stroke="none" font-family="Arial" font-size="13px" font-style="normal" font-weight="bold" text-decoration="none" x="460.9205322265625" y="440.5">ITimeScheme</text></g></g><g transform="translate(-33.1170654296875,-6) scale(1,1)"><g><path fill="none" stroke="none"/><text fill="#000000" stroke="none" font-family="Arial" font-size="13px" font-style="normal" font-weight="normal" text-decoration="none" x="457.6932373046875" y="473.5">+iterate()</text></g></g><g transform="translate(-33.1170654296875,-6) scale(1,1)"><path fill="none" stroke="#000000" d="M 501 420 Q 500 387 668 325" stroke-miterlimit="10"/></g><g transform="translate(-33.1170654296875,-6) scale(1,1)"><path fill="#FFFFFF" stroke="none" d="M 659.9232946006712 332.4677191894482 L 668 325 L 657.0084319636329 324.5693817213443 L 647.36064956016 332.6169031385123"/></g><g transform="translate(-33.1170654296875,-6) scale(1,1)"><path fill="none" stroke="#000000" d="M 659.9232946006712 332.4677191894482 L 668 325 L 657.0084319636329 324.5693817213443 L 647.36064956016 332.6169031385123 L 659.9232946006712 332.4677191894482" stroke-miterlimit="10"/></g><g transform="translate(-33.1170654296875,-6) scale(1,1)"><g><path fill="none" stroke="none"/><text fill="#000000" stroke="none" font-family="Arial" font-size="13px" font-style="normal" font-weight="normal" text-decoration="none" x="508.614990234375" y="403.5">1</text></g></g><g transform="translate(-33.1170654296875,-6) scale(1,1)"><rect fill="#C0C0C0" stroke="none" x="332.06396484375" y="535" width="178.82861328125" height="44" opacity="0.2"/></g><g transform="translate(-33.1170654296875,-6) scale(1,1)"><rect fill="#ffffff" stroke="none" x="325.06396484375" y="528" width="178.82861328125" height="44"/></g><g transform="translate(-33.1170654296875,-6) scale(1,1)"><path fill="none" stroke="#000000" d="M 325.06396484375 528 L 503.892578125 528 L 503.892578125 572 L 325.06396484375 572 L 325.06396484375 528 Z Z" stroke-miterlimit="10"/></g><g transform="translate(-33.1170654296875,-6) scale(1,1)"><path fill="none" stroke="#000000" d="M 325.06396484375 553 L 503.892578125 553" stroke-miterlimit="10"/></g><g transform="translate(-33.1170654296875,-6) scale(1,1)"><path fill="none" stroke="#000000" d="M 325.06396484375 563 L 503.892578125 563" stroke-miterlimit="10"/></g><g transform="translate(-33.1170654296875,-6) scale(1,1)"><g><path fill="none" stroke="none"/><text fill="#000000" stroke="none" font-family="Arial" font-size="13px" font-style="normal" font-weight="bold" text-decoration="none" x="338.478271484375" y="547.5">RungeKutta4TimeScheme</text></g></g><g transform="translate(-33.1170654296875,-6) scale(1,1)"><path fill="none" stroke="#000000" d="M 413 527 Q 411 497 452 475" stroke-miterlimit="10"/></g><g transform="translate(-33.1170654296875,-6) scale(1,1)"><path fill="#FFFFFF" stroke="none" d="M 438.0707784439776 492.0287047905365 L 452 475 L 430.1094403488745 477.19166561329894"/></g><g transform="translate(-33.1170654296875,-6) scale(1,1)"><path fill="none" stroke="#000000" d="M 438.0707784439776 492.0287047905365 L 452 475 L 430.1094403488745 477.19166561329894 L 438.0707784439776 492.0287047905365" stroke-miterlimit="10"/></g><g transform="translate(-33.1170654296875,-6) scale(1,1)"><rect fill="#C0C0C0" stroke="none" x="792.498291015625" y="428" width="112.84765625" height="57" opacity="0.2"/></g><g transform="translate(-33.1170654296875,-6) scale(1,1)"><rect fill="#ffffff" stroke="none" x="785.498291015625" y="421" width="112.84765625" height="57"/></g><g transform="translate(-33.1170654296875,-6) scale(1,1)"><path fill="none" stroke="#000000" d="M 785.498291015625 421 L 898.345947265625 421 L 898.345947265625 478 L 785.498291015625 478 L 785.498291015625 421 Z Z" stroke-miterlimit="10"/></g><g transform="translate(-33.1170654296875,-6) scale(1,1)"><path fill="none" stroke="#000000" d="M 785.498291015625 446 L 898.345947265625 446" stroke-miterlimit="10"/></g><g transform="translate(-33.1170654296875,-6) scale(1,1)"><path fill="none" stroke="#000000" d="M 785.498291015625 456 L 898.345947265625 456" stroke-miterlimit="10"/></g><g transform="translate(-33.1170654296875,-6) scale(1,1)"><g><path fill="none" stroke="none"/><text fill="#000000" stroke="none" font-family="Arial" font-size="13px" font-style="normal" font-weight="bold" text-decoration="none" x="816.422119140625" y="440.5">IPhysics</text></g></g><g transform="translate(-33.1170654296875,-6) scale(1,1)"><g><path fill="none" stroke="none"/><text fill="#000000" stroke="none" font-family="Arial" font-size="13px" font-style="normal" font-weight="normal" text-decoration="none" x="790.498291015625" y="473.5">+computeTerm()</text></g></g><g transform="translate(-33.1170654296875,-6) scale(1,1)"><path fill="none" stroke="#000000" d="M 829 420 L 810 376" stroke-miterlimit="10"/></g><g transform="translate(-33.1170654296875,-6) scale(1,1)"><path fill="#000000" stroke="none" d="M 817.8934501138463 383.6611647482756 L 810 376 L 810.1642505571654 386.9987736477514 L 818.7215923585939 396.1973717777962"/></g><g transform="translate(-33.1170654296875,-6) scale(1,1)"><path fill="none" stroke="#000000" d="M 817.8934501138463 383.6611647482756 L 810 376 L 810.1642505571654 386.9987736477514 L 818.7215923585939 396.1973717777962 L 817.8934501138463 383.6611647482756" stroke-miterlimit="10"/></g><g transform="translate(-33.1170654296875,-6) scale(1,1)"><g><path fill="none" stroke="none"/><text fill="#000000" stroke="none" font-family="Arial" font-size="13px" font-style="normal" font-weight="normal" text-decoration="none" x="820.5" y="401.5">1..*</text></g></g><g transform="translate(-33.1170654296875,-6) scale(1,1)"><rect fill="#C0C0C0" stroke="none" x="751" y="631" width="83.6865234375" height="44" opacity="0.2"/></g><g transform="translate(-33.1170654296875,-6) scale(1,1)"><rect fill="#ffffff" stroke="none" x="744" y="624" width="83.6865234375" height="44"/></g><g transform="translate(-33.1170654296875,-6) scale(1,1)"><path fill="none" stroke="#000000" d="M 744 624 L 827.6865234375 624 L 827.6865234375 668 L 744 668 L 744 624 Z Z" stroke-miterlimit="10"/></g><g transform="translate(-33.1170654296875,-6) scale(1,1)"><path fill="none" stroke="#000000" d="M 744 649 L 827.6865234375 649" stroke-miterlimit="10"/></g><g transform="translate(-33.1170654296875,-6) scale(1,1)"><path fill="none" stroke="#000000" d="M 744 659 L 827.6865234375 659" stroke-miterlimit="10"/></g><g transform="translate(-33.1170654296875,-6) scale(1,1)"><g><path fill="none" stroke="none"/><text fill="#000000" stroke="none" font-family="Arial" font-size="13px" font-style="normal" font-weight="bold" text-decoration="none" x="753.34326171875" y="643.5">Convection</text></g></g><g transform="translate(-33.1170654296875,-6) scale(1,1)"><path fill="none" stroke="#000000" d="M 775 623 Q 721 497 784 472" stroke-miterlimit="10"/></g><g transform="translate(-33.1170654296875,-6) scale(1,1)"><path fill="#FFFFFF" stroke="none" d="M 768.2130997723075 487.32232949655116 L 784 472 L 762.0024527044972 471.67149888566917"/></g><g transform="translate(-33.1170654296875,-6) scale(1,1)"><path fill="none" stroke="#000000" d="M 768.2130997723075 487.32232949655116 L 784 472 L 762.0024527044972 471.67149888566917 L 768.2130997723075 487.32232949655116" stroke-miterlimit="10"/></g><g transform="translate(-33.1170654296875,-6) scale(1,1)"><rect fill="#C0C0C0" stroke="none" x="928.938232421875" y="428" width="148.8896484375" height="57" opacity="0.2"/></g><g transform="translate(-33.1170654296875,-6) scale(1,1)"><rect fill="#ffffff" stroke="none" x="921.938232421875" y="421" width="148.8896484375" height="57"/></g><g transform="translate(-33.1170654296875,-6) scale(1,1)"><path fill="none" stroke="#000000" d="M 921.938232421875 421 L 1070.827880859375 421 L 1070.827880859375 478 L 921.938232421875 478 L 921.938232421875 421 Z Z" stroke-miterlimit="10"/></g><g transform="translate(-33.1170654296875,-6) scale(1,1)"><path fill="none" stroke="#000000" d="M 921.938232421875 446 L 1070.827880859375 446" stroke-miterlimit="10"/></g><g transform="translate(-33.1170654296875,-6) scale(1,1)"><path fill="none" stroke="#000000" d="M 921.938232421875 469 L 1070.827880859375 469" stroke-miterlimit="10"/></g><g transform="translate(-33.1170654296875,-6) scale(1,1)"><g><path fill="none" stroke="none"/><text fill="#000000" stroke="none" font-family="Arial" font-size="13px" font-style="normal" font-weight="bold" text-decoration="none" x="969.383056640625" y="440.5">RealField</text></g></g><g transform="translate(-33.1170654296875,-6) scale(1,1)"><g><path fill="none" stroke="none"/><text fill="#000000" stroke="none" font-family="Arial" font-size="13px" font-style="normal" font-weight="normal" text-decoration="none" x="926.938232421875" y="463.5">-m_data: vector&lt;Real&gt;</text></g></g><g transform="translate(-33.1170654296875,-6) scale(1,1)"><rect fill="#C0C0C0" stroke="none" x="1101.172607421875" y="428" width="112.7080078125" height="57" opacity="0.2"/></g><g transform="translate(-33.1170654296875,-6) scale(1,1)"><rect fill="#ffffff" stroke="none" x="1094.172607421875" y="421" width="112.7080078125" height="57"/></g><g transform="translate(-33.1170654296875,-6) scale(1,1)"><path fill="none" stroke="#000000" d="M 1094.172607421875 421 L 1206.880615234375 421 L 1206.880615234375 478 L 1094.172607421875 478 L 1094.172607421875 421 Z Z" stroke-miterlimit="10"/></g><g transform="translate(-33.1170654296875,-6) scale(1,1)"><path fill="none" stroke="#000000" d="M 1094.172607421875 446 L 1206.880615234375 446" stroke-miterlimit="10"/></g><g transform="translate(-33.1170654296875,-6) scale(1,1)"><path fill="none" stroke="#000000" d="M 1094.172607421875 456 L 1206.880615234375 456" stroke-miterlimit="10"/></g><g transform="translate(-33.1170654296875,-6) scale(1,1)"><g><path fill="none" stroke="none"/><text fill="#000000" stroke="none" font-family="Arial" font-size="13px" font-style="normal" font-weight="bold" text-decoration="none" x="1104.526611328125" y="440.5">RealVectorField</text></g></g><g transform="translate(-33.1170654296875,-6) scale(1,1)"><path fill="none" stroke="#000000" d="M 995 420 Q 993 387 877 334" stroke-miterlimit="10"/></g><g transform="translate(-33.1170654296875,-6) scale(1,1)"><path fill="#FFFFFF" stroke="none" d="M 887.992922095584 334.39454252042157 L 877 334 L 884.4941860671864 342.0521534504994 L 897.0103016813446 343.14263783716603"/></g><g transform="translate(-33.1170654296875,-6) scale(1,1)"><path fill="none" stroke="#000000" d="M 887.992922095584 334.39454252042157 L 877 334 L 884.4941860671864 342.0521534504994 L 897.0103016813446 343.14263783716603 L 887.992922095584 334.39454252042157" stroke-miterlimit="10"/></g><g transform="translate(-33.1170654296875,-6) scale(1,1)"><g><path fill="none" stroke="none"/><text fill="#000000" stroke="none" font-family="Arial" font-size="13px" font-style="normal" font-weight="normal" text-decoration="none" x="1003.132568359375" y="403.5">*</text></g></g><g transform="translate(-33.1170654296875,-6) scale(1,1)"><path fill="none" stroke="#000000" d="M 1149 420 Q 1148 387 877 315" stroke-miterlimit="10"/></g><g transform="translate(-33.1170654296875,-6) scale(1,1)"><path fill="#FFFFFF" stroke="none" d="M 887.9028310769479 313.5411393118122 L 877 315 L 885.7410360740654 321.6778955032172 L 898.2623685878367 320.6490425768422"/></g><g transform="translate(-33.1170654296875,-6) scale(1,1)"><path fill="none" stroke="#000000" d="M 887.9028310769479 313.5411393118122 L 877 315 L 885.7410360740654 321.6778955032172 L 898.2623685878367 320.6490425768422 L 887.9028310769479 313.5411393118122" stroke-miterlimit="10"/></g><g transform="translate(-33.1170654296875,-6) scale(1,1)"><g><path fill="none" stroke="none"/><text fill="#000000" stroke="none" font-family="Arial" font-size="13px" font-style="normal" font-weight="normal" text-decoration="none" x="1157.5" y="403.5">*</text></g></g><g transform="translate(-33.1170654296875,-6) scale(1,1)"><rect fill="#C0C0C0" stroke="none" x="823" y="535" width="96.97216796875" height="44" opacity="0.2"/></g><g transform="translate(-33.1170654296875,-6) scale(1,1)"><rect fill="#ffffff" stroke="none" x="816" y="528" width="96.97216796875" height="44"/></g><g transform="translate(-33.1170654296875,-6) scale(1,1)"><path fill="none" stroke="#000000" d="M 816 528 L 912.97216796875 528 L 912.97216796875 572 L 816 572 L 816 528 Z Z" stroke-miterlimit="10"/></g><g transform="translate(-33.1170654296875,-6) scale(1,1)"><path fill="none" stroke="#000000" d="M 816 553 L 912.97216796875 553" stroke-miterlimit="10"/></g><g transform="translate(-33.1170654296875,-6) scale(1,1)"><path fill="none" stroke="#000000" d="M 816 563 L 912.97216796875 563" stroke-miterlimit="10"/></g><g transform="translate(-33.1170654296875,-6) scale(1,1)"><g><path fill="none" stroke="none"/><text fill="#000000" stroke="none" font-family="Arial" font-size="13px" font-style="normal" font-weight="bold" text-decoration="none" x="824.986083984375" y="547.5">OtherPhysics</text></g></g><g transform="translate(-33.1170654296875,-6) scale(1,1)"><path fill="none" stroke="#000000" d="M 853 527 Q 839 497 840 479" stroke-miterlimit="10"/></g><g transform="translate(-33.1170654296875,-6) scale(1,1)"><path fill="#FFFFFF" stroke="none" d="M 847.2786256234529 499.7610599207655 L 840 479 L 830.4664792814682 498.8270517906552"/></g><g transform="translate(-33.1170654296875,-6) scale(1,1)"><path fill="none" stroke="#000000" d="M 847.2786256234529 499.7610599207655 L 840 479 L 830.4664792814682 498.8270517906552 L 847.2786256234529 499.7610599207655" stroke-miterlimit="10"/></g><g transform="translate(-33.1170654296875,-6) scale(1,1)"><rect fill="#C0C0C0" stroke="none" x="533.15478515625" y="535" width="131.1796875" height="44" opacity="0.2"/></g><g transform="translate(-33.1170654296875,-6) scale(1,1)"><rect fill="#ffffff" stroke="none" x="526.15478515625" y="528" width="131.1796875" height="44"/></g><g transform="translate(-33.1170654296875,-6) scale(1,1)"><path fill="none" stroke="#000000" d="M 526.15478515625 528 L 657.33447265625 528 L 657.33447265625 572 L 526.15478515625 572 L 526.15478515625 528 Z Z" stroke-miterlimit="10"/></g><g transform="translate(-33.1170654296875,-6) scale(1,1)"><path fill="none" stroke="#000000" d="M 526.15478515625 553 L 657.33447265625 553" stroke-miterlimit="10"/></g><g transform="translate(-33.1170654296875,-6) scale(1,1)"><path fill="none" stroke="#000000" d="M 526.15478515625 563 L 657.33447265625 563" stroke-miterlimit="10"/></g><g transform="translate(-33.1170654296875,-6) scale(1,1)"><g><path fill="none" stroke="none"/><text fill="#000000" stroke="none" font-family="Arial" font-size="13px" font-style="normal" font-weight="bold" text-decoration="none" x="537.24462890625" y="547.5">OtherTimeScheme</text></g></g><g transform="translate(-33.1170654296875,-6) scale(1,1)"><path fill="none" stroke="#000000" d="M 590 527 Q 589 497 551 476" stroke-miterlimit="10"/></g><g transform="translate(-33.1170654296875,-6) scale(1,1)"><path fill="#FFFFFF" stroke="none" d="M 572.8617608441099 478.4623998040418 L 551 476 L 564.7174197421183 493.199778940979"/></g><g transform="translate(-33.1170654296875,-6) scale(1,1)"><path fill="none" stroke="#000000" d="M 572.8617608441099 478.4623998040418 L 551 476 L 564.7174197421183 493.199778940979 L 572.8617608441099 478.4623998040418" stroke-miterlimit="10"/></g><g transform="translate(-33.1170654296875,-6) scale(1,1)"><path fill="#ffffff" stroke="none" d="M 560 640 L 709 640 L 719 650 L 719 702 L 560 702 L 560 640"/></g><g transform="translate(-33.1170654296875,-6) scale(1,1)"><path fill="none" stroke="#000000" d="M 560 640 L 709 640 L 719 650 L 719 702 L 560 702 L 560 640 L 560 640" stroke-miterlimit="10"/></g><g transform="translate(-33.1170654296875,-6) scale(1,1)"><path fill="none" stroke="#000000" d="M 709 640 L 709 650 L 719 650 L 709 640" stroke-miterlimit="10"/></g><g transform="translate(-33.1170654296875,-6) scale(1,1)"><g><path fill="none" stroke="none"/><text fill="#000000" stroke="none" font-family="Arial" font-size="13px" font-style="normal" font-weight="normal" text-decoration="none" x="565" y="658">Compute grad(pressure)</text><text fill="#000000" stroke="none" font-family="Arial" font-size="13px" font-style="normal" font-weight="normal" text-decoration="none" x="565" y="671">using an SPHOperator</text></g></g><g transform="translate(-33.1170654296875,-6) scale(1,1)"><path fill="none" stroke="#000000" d="M 663 639 Q 680 616 743 634" stroke-miterlimit="10" stroke-dasharray="3"/></g><g transform="translate(-33.1170654296875,-6) scale(1,1)"><rect fill="#C0C0C0" stroke="none" x="751" y="727" width="228.52099609375" height="85" opacity="0.2"/></g><g transform="translate(-33.1170654296875,-6) scale(1,1)"><rect fill="#ffffff" stroke="none" x="744" y="720" width="228.52099609375" height="85"/></g><g transform="translate(-33.1170654296875,-6) scale(1,1)"><path fill="none" stroke="#000000" d="M 744 720 L 972.52099609375 720 L 972.52099609375 805 L 744 805 L 744 720 Z Z" stroke-miterlimit="10"/></g><g transform="translate(-33.1170654296875,-6) scale(1,1)"><path fill="none" stroke="#000000" d="M 744 745 L 972.52099609375 745" stroke-miterlimit="10"/></g><g transform="translate(-33.1170654296875,-6) scale(1,1)"><path fill="none" stroke="#000000" d="M 744 768 L 972.52099609375 768" stroke-miterlimit="10"/></g><g transform="translate(-33.1170654296875,-6) scale(1,1)"><g><path fill="none" stroke="none"/><text fill="#000000" stroke="none" font-family="Arial" font-size="13px" font-style="normal" font-weight="bold" text-decoration="none" x="819.760498046875" y="739.5">SPHOperator</text></g></g><g transform="translate(-33.1170654296875,-6) scale(1,1)"><g><path fill="none" stroke="none"/><text fill="#000000" stroke="none" font-family="Arial" font-size="13px" font-style="normal" font-weight="normal" text-decoration="none" x="749" y="762.5">-m_kernel</text></g></g><g transform="translate(-33.1170654296875,-6) scale(1,1)"><g><path fill="none" stroke="none"/><text fill="#000000" stroke="none" font-family="Arial" font-size="13px" font-style="normal" font-weight="normal" text-decoration="none" x="749" y="785.5">+grad(f : RealField): RealVectorField</text></g></g><g transform="translate(-33.1170654296875,-6) scale(1,1)"><g><path fill="none" stroke="none"/><text fill="#000000" stroke="none" font-family="Arial" font-size="13px" font-style="normal" font-weight="normal" text-decoration="none" x="749" y="800.5">+div(fv : RealVectorField): RealField</text></g></g><g transform="translate(-33.1170654296875,-6) scale(1,1)"><path fill="none" stroke="#000000" d="M 843 719 Q 832 688 811 669" stroke-miterlimit="10"/></g><g transform="translate(-33.1170654296875,-6) scale(1,1)"><path fill="#FFFFFF" stroke="none" d="M 821.3602085685256 672.6967659402035 L 811 669 L 815.7117654685342 678.9397819980887 L 827.313787140723 683.7600931273208"/></g><g transform="translate(-33.1170654296875,-6) scale(1,1)"><path fill="none" stroke="#000000" d="M 821.3602085685256 672.6967659402035 L 811 669 L 815.7117654685342 678.9397819980887 L 827.313787140723 683.7600931273208 L 821.3602085685256 672.6967659402035" stroke-miterlimit="10"/></g><g transform="translate(-33.1170654296875,-6) scale(1,1)"><rect fill="#C0C0C0" stroke="none" x="871" y="879" width="77.681640625" height="44" opacity="0.2"/></g><g transform="translate(-33.1170654296875,-6) scale(1,1)"><rect fill="#ffffff" stroke="none" x="864" y="872" width="77.681640625" height="44"/></g><g transform="translate(-33.1170654296875,-6) scale(1,1)"><path fill="none" stroke="#000000" d="M 864 872 L 941.681640625 872 L 941.681640625 916 L 864 916 L 864 872 Z Z" stroke-miterlimit="10"/></g><g transform="translate(-33.1170654296875,-6) scale(1,1)"><path fill="none" stroke="#000000" d="M 864 897 L 941.681640625 897" stroke-miterlimit="10"/></g><g transform="translate(-33.1170654296875,-6) scale(1,1)"><path fill="none" stroke="#000000" d="M 864 907 L 941.681640625 907" stroke-miterlimit="10"/></g><g transform="translate(-33.1170654296875,-6) scale(1,1)"><g><path fill="none" stroke="none"/><text fill="#000000" stroke="none" font-family="Arial" font-size="13px" font-style="normal" font-weight="bold" text-decoration="none" x="870.8408203125" y="891.5">SPHKernel</text></g></g><g transform="translate(-33.1170654296875,-6) scale(1,1)"><path fill="none" stroke="#000000" d="M 894 871 L 873 806" stroke-miterlimit="10"/></g><g transform="translate(-33.1170654296875,-6) scale(1,1)"><path fill="#000000" stroke="none" d="M 880.1299691372406 814.3763679540716 L 873 806 L 872.1186629445558 816.9646361086313 L 879.7634706278332 826.9345519432932"/></g><g transform="translate(-33.1170654296875,-6) scale(1,1)"><path fill="none" stroke="#000000" d="M 880.1299691372406 814.3763679540716 L 873 806 L 872.1186629445558 816.9646361086313 L 879.7634706278332 826.9345519432932 L 880.1299691372406 814.3763679540716" stroke-miterlimit="10"/></g><g transform="translate(-33.1170654296875,-6) scale(1,1)"><rect fill="#C0C0C0" stroke="none" x="178" y="283.5" width="105.61767578125" height="44" opacity="0.2"/></g><g transform="translate(-33.1170654296875,-6) scale(1,1)"><rect fill="#ffffff" stroke="none" x="171" y="276.5" width="105.61767578125" height="44"/></g><g transform="translate(-33.1170654296875,-6) scale(1,1)"><path fill="none" stroke="#000000" d="M 171 276.5 L 276.61767578125 276.5 L 276.61767578125 320.5 L 171 320.5 L 171 276.5 Z Z" stroke-miterlimit="10"/></g><g transform="translate(-33.1170654296875,-6) scale(1,1)"><path fill="none" stroke="#000000" d="M 171 301.5 L 276.61767578125 301.5" stroke-miterlimit="10"/></g><g transform="translate(-33.1170654296875,-6) scale(1,1)"><path fill="none" stroke="#000000" d="M 171 311.5 L 276.61767578125 311.5" stroke-miterlimit="10"/></g><g transform="translate(-33.1170654296875,-6) scale(1,1)"><g><path fill="none" stroke="none"/><text fill="#000000" stroke="none" font-family="Arial" font-size="13px" font-style="normal" font-weight="bold" text-decoration="none" x="181.308837890625" y="296">LoadBalancing</text></g></g><g transform="translate(-33.1170654296875,-6) scale(1,1)"><path fill="none" stroke="#000000" d="M 223 276 Q 223 211 342 180" stroke-miterlimit="10"/></g><g transform="translate(-33.1170654296875,-6) scale(1,1)"><path fill="#FFFFFF" stroke="none" d="M 333.22672412547996 186.6354826824855 L 342 180 L 331.10436233467516 178.48835193713796 L 320.71052139624646 185.54599862786858"/></g><g transform="translate(-33.1170654296875,-6) scale(1,1)"><path fill="none" stroke="#000000" d="M 333.22672412547996 186.6354826824855 L 342 180 L 331.10436233467516 178.48835193713796 L 320.71052139624646 185.54599862786858 L 333.22672412547996 186.6354826824855" stroke-miterlimit="10"/></g><g transform="translate(-33.1170654296875,-6) scale(1,1)"><g><path fill="none" stroke="none"/><text fill="#000000" stroke="none" font-family="Arial" font-size="13px" font-style="normal" font-weight="normal" text-decoration="none" x="231.614990234375" y="260.5">1</text></g></g><g transform="translate(-33.1170654296875,-6) scale(1,1)"><rect fill="#C0C0C0" stroke="none" x="1416.55615234375" y="291.5" width="112.19384765625" height="44" opacity="0.2"/></g><g transform="translate(-33.1170654296875,-6) scale(1,1)"><rect fill="#ffffff" stroke="none" x="1409.55615234375" y="284.5" width="112.19384765625" height="44"/></g><g transform="translate(-33.1170654296875,-6) scale(1,1)"><path fill="none" stroke="#000000" d="M 1409.55615234375 284.5 L 1521.75 284.5 L 1521.75 328.5 L 1409.55615234375 328.5 L 1409.55615234375 284.5 Z Z" stroke-miterlimit="10"/></g><g transform="translate(-33.1170654296875,-6) scale(1,1)"><path fill="none" stroke="#000000" d="M 1409.55615234375 309.5 L 1521.75 309.5" stroke-miterlimit="10"/></g><g transform="translate(-33.1170654296875,-6) scale(1,1)"><path fill="none" stroke="#000000" d="M 1409.55615234375 319.5 L 1521.75 319.5" stroke-miterlimit="10"/></g><g transform="translate(-33.1170654296875,-6) scale(1,1)"><g><path fill="none" stroke="none"/><text fill="#000000" stroke="none" font-family="Arial" font-size="13px" font-style="normal" font-weight="bold" text-decoration="none" x="1420.653076171875" y="304">IFaultTolerance</text></g></g><g transform="translate(-33.1170654296875,-6) scale(1,1)"><path fill="none" stroke="#000000" d="M 1464 284 Q 1463 219 569 159" stroke-miterlimit="10"/></g><g transform="translate(-33.1170654296875,-6) scale(1,1)"><path fill="#FFFFFF" stroke="none" d="M 579.4217478511732 155.4804585914404 L 569 159 L 578.8579801740403 163.88059698072158 L 590.9506194385422 160.47319593547263"/></g><g transform="translate(-33.1170654296875,-6) scale(1,1)"><path fill="none" stroke="#000000" d="M 579.4217478511732 155.4804585914404 L 569 159 L 578.8579801740403 163.88059698072158 L 590.9506194385422 160.47319593547263 L 579.4217478511732 155.4804585914404" stroke-miterlimit="10"/></g><g transform="translate(-33.1170654296875,-6) scale(1,1)"><g><path fill="none" stroke="none"/><text fill="#000000" stroke="none" font-family="Arial" font-size="13px" font-style="normal" font-weight="normal" text-decoration="none" x="1472.614990234375" y="268.5">1</text></g></g><g transform="translate(-33.1170654296875,-6) scale(1,1)"><rect fill="#C0C0C0" stroke="none" x="1383.427978515625" y="442.5" width="50.919921875" height="44" opacity="0.2"/></g><g transform="translate(-33.1170654296875,-6) scale(1,1)"><rect fill="#ffffff" stroke="none" x="1376.427978515625" y="435.5" width="50.919921875" height="44"/></g><g transform="translate(-33.1170654296875,-6) scale(1,1)"><path fill="none" stroke="#000000" d="M 1376.427978515625 435.5 L 1427.347900390625 435.5 L 1427.347900390625 479.5 L 1376.427978515625 479.5 L 1376.427978515625 435.5 Z Z" stroke-miterlimit="10"/></g><g transform="translate(-33.1170654296875,-6) scale(1,1)"><path fill="none" stroke="#000000" d="M 1376.427978515625 460.5 L 1427.347900390625 460.5" stroke-miterlimit="10"/></g><g transform="translate(-33.1170654296875,-6) scale(1,1)"><path fill="none" stroke="#000000" d="M 1376.427978515625 470.5 L 1427.347900390625 470.5" stroke-miterlimit="10"/></g><g transform="translate(-33.1170654296875,-6) scale(1,1)"><g><path fill="none" stroke="none"/><text fill="#000000" stroke="none" font-family="Arial" font-size="13px" font-style="normal" font-weight="bold" text-decoration="none" x="1391.887939453125" y="455">FTI</text></g></g><g transform="translate(-33.1170654296875,-6) scale(1,1)"><path fill="none" stroke="#000000" d="M 1401 435 Q 1402 411 1451 330" stroke-miterlimit="10"/></g><g transform="translate(-33.1170654296875,-6) scale(1,1)"><path fill="#FFFFFF" stroke="none" d="M 1447.683136972905 351.74852683883415 L 1451 330 L 1433.276092852717 343.0331544698315"/></g><g transform="translate(-33.1170654296875,-6) scale(1,1)"><path fill="none" stroke="#000000" d="M 1447.683136972905 351.74852683883415 L 1451 330 L 1433.276092852717 343.0331544698315 L 1447.683136972905 351.74852683883415" stroke-miterlimit="10"/></g><g transform="translate(-33.1170654296875,-6) scale(1,1)"><rect fill="#C0C0C0" stroke="none" x="1465.347900390625" y="442.5" width="81.22998046875" height="44" opacity="0.2"/></g><g transform="translate(-33.1170654296875,-6) scale(1,1)"><rect fill="#ffffff" stroke="none" x="1458.347900390625" y="435.5" width="81.22998046875" height="44"/></g><g transform="translate(-33.1170654296875,-6) scale(1,1)"><path fill="none" stroke="#000000" d="M 1458.347900390625 435.5 L 1539.577880859375 435.5 L 1539.577880859375 479.5 L 1458.347900390625 479.5 L 1458.347900390625 435.5 Z Z" stroke-miterlimit="10"/></g><g transform="translate(-33.1170654296875,-6) scale(1,1)"><path fill="none" stroke="#000000" d="M 1458.347900390625 460.5 L 1539.577880859375 460.5" stroke-miterlimit="10"/></g><g transform="translate(-33.1170654296875,-6) scale(1,1)"><path fill="none" stroke="#000000" d="M 1458.347900390625 470.5 L 1539.577880859375 470.5" stroke-miterlimit="10"/></g><g transform="translate(-33.1170654296875,-6) scale(1,1)"><g><path fill="none" stroke="none"/><text fill="#000000" stroke="none" font-family="Arial" font-size="13px" font-style="normal" font-weight="bold" text-decoration="none" x="1465.962890625" y="455">OtherABFT</text></g></g><g transform="translate(-33.1170654296875,-6) scale(1,1)"><path fill="none" stroke="#000000" d="M 1498 435 Q 1498 411 1472 330" stroke-miterlimit="10"/></g><g transform="translate(-33.1170654296875,-6) scale(1,1)"><path fill="#FFFFFF" stroke="none" d="M 1486.2282004963424 346.7796993607121 L 1472 330 L 1470.1958178508144 351.9258962592766"/></g><g transform="translate(-33.1170654296875,-6) scale(1,1)"><path fill="none" stroke="#000000" d="M 1486.2282004963424 346.7796993607121 L 1472 330 L 1470.1958178508144 351.9258962592766 L 1486.2282004963424 346.7796993607121" stroke-miterlimit="10"/></g><g transform="translate(-33.1170654296875,-6) scale(1,1)"><path fill="#ffffff" stroke="none" d="M 912 208 L 1101 208 L 1111 218 L 1111 283 L 912 283 L 912 208"/></g><g transform="translate(-33.1170654296875,-6) scale(1,1)"><path fill="none" stroke="#000000" d="M 912 208 L 1101 208 L 1111 218 L 1111 283 L 912 283 L 912 208 L 912 208" stroke-miterlimit="10"/></g><g transform="translate(-33.1170654296875,-6) scale(1,1)"><path fill="none" stroke="#000000" d="M 1101 208 L 1101 218 L 1111 218 L 1101 208" stroke-miterlimit="10"/></g><g transform="translate(-33.1170654296875,-6) scale(1,1)"><g><path fill="none" stroke="none"/><text fill="#000000" stroke="none" font-family="Arial" font-size="13px" font-style="normal" font-weight="normal" text-decoration="none" x="917" y="226">Perform one single iteration</text><text fill="#000000" stroke="none" font-family="Arial" font-size="13px" font-style="normal" font-weight="normal" text-decoration="none" x="917" y="239">depending on strategies (time</text><text fill="#000000" stroke="none" font-family="Arial" font-size="13px" font-style="normal" font-weight="normal" text-decoration="none" x="917" y="252">scheme, equation, physics)</text></g></g><g transform="translate(-33.1170654296875,-6) scale(1,1)"><path fill="none" stroke="#000000" d="M 877 254 Q 896 248 911 248" stroke-miterlimit="10" stroke-dasharray="3"/></g><g transform="translate(-33.1170654296875,-6) scale(1,1)"><path fill="#ffffff" stroke="none" d="M 1480 192 L 1581 192 L 1591 202 L 1591 254 L 1480 254 L 1480 192"/></g><g transform="translate(-33.1170654296875,-6) scale(1,1)"><path fill="none" stroke="#000000" d="M 1480 192 L 1581 192 L 1591 202 L 1591 254 L 1480 254 L 1480 192 L 1480 192" stroke-miterlimit="10"/></g><g transform="translate(-33.1170654296875,-6) scale(1,1)"><path fill="none" stroke="#000000" d="M 1581 192 L 1581 202 L 1591 202 L 1581 192" stroke-miterlimit="10"/></g><g transform="translate(-33.1170654296875,-6) scale(1,1)"><g><path fill="none" stroke="none"/><text fill="#000000" stroke="none" font-family="Arial" font-size="13px" font-style="normal" font-weight="normal" text-decoration="none" x="1485" y="210">Interface to fault</text><text fill="#000000" stroke="none" font-family="Arial" font-size="13px" font-style="normal" font-weight="normal" text-decoration="none" x="1485" y="223">tolerance</text><text fill="#000000" stroke="none" font-family="Arial" font-size="13px" font-style="normal" font-weight="normal" text-decoration="none" x="1485" y="236">algorithms</text></g></g><g transform="translate(-33.1170654296875,-6) scale(1,1)"><path fill="none" stroke="#000000" d="M 1508 256 L 1484 284" stroke-miterlimit="10" stroke-dasharray="3"/></g><g transform="translate(-33.1170654296875,-6) scale(1,1)"><path fill="#ffffff" stroke="none" d="M 616 416 L 725 416 L 735 426 L 735 491 L 616 491 L 616 416"/></g><g transform="translate(-33.1170654296875,-6) scale(1,1)"><path fill="none" stroke="#000000" d="M 616 416 L 725 416 L 735 426 L 735 491 L 616 491 L 616 416 L 616 416" stroke-miterlimit="10"/></g><g transform="translate(-33.1170654296875,-6) scale(1,1)"><path fill="none" stroke="#000000" d="M 725 416 L 725 426 L 735 426 L 725 416" stroke-miterlimit="10"/></g><g transform="translate(-33.1170654296875,-6) scale(1,1)"><g><path fill="none" stroke="none"/><text fill="#000000" stroke="none" font-family="Arial" font-size="13px" font-style="normal" font-weight="normal" text-decoration="none" x="621" y="434">Interface to</text><text fill="#000000" stroke="none" font-family="Arial" font-size="13px" font-style="normal" font-weight="normal" text-decoration="none" x="621" y="447">classes computing</text><text fill="#000000" stroke="none" font-family="Arial" font-size="13px" font-style="normal" font-weight="normal" text-decoration="none" x="621" y="460">physics</text></g></g><g transform="translate(-33.1170654296875,-6) scale(1,1)"><path fill="none" stroke="#000000" d="M 737 427 Q 744 424 784 434" stroke-miterlimit="10" stroke-dasharray="3"/></g><g transform="translate(-33.1170654296875,-6) scale(1,1)"><path fill="#ffffff" stroke="none" d="M 1016 664 L 1197 664 L 1207 674 L 1207 727 L 1016 727 L 1016 664"/></g><g transform="translate(-33.1170654296875,-6) scale(1,1)"><path fill="none" stroke="#000000" d="M 1016 664 L 1197 664 L 1207 674 L 1207 727 L 1016 727 L 1016 664 L 1016 664" stroke-miterlimit="10"/></g><g transform="translate(-33.1170654296875,-6) scale(1,1)"><path fill="none" stroke="#000000" d="M 1197 664 L 1197 674 L 1207 674 L 1197 664" stroke-miterlimit="10"/></g><g transform="translate(-33.1170654296875,-6) scale(1,1)"><g><path fill="none" stroke="none"/><text fill="#000000" stroke="none" font-family="Arial" font-size="13px" font-style="normal" font-weight="normal" text-decoration="none" x="1021" y="682">SPHOperator allows to</text><text fill="#000000" stroke="none" font-family="Arial" font-size="13px" font-style="normal" font-weight="normal" text-decoration="none" x="1021" y="695">compute a grad or a div using</text><text fill="#000000" stroke="none" font-family="Arial" font-size="13px" font-style="normal" font-weight="normal" text-decoration="none" x="1021" y="708">an SPH Kernel</text></g></g><g transform="translate(-33.1170654296875,-6) scale(1,1)"><path fill="none" stroke="#000000" d="M 1015 721 L 974 732" stroke-miterlimit="10" stroke-dasharray="3"/></g><g transform="translate(-33.1170654296875,-6) scale(1,1)"><path fill="#ffffff" stroke="none" d="M 768 16 L 877 16 L 887 26 L 887 78 L 768 78 L 768 16"/></g><g transform="translate(-33.1170654296875,-6) scale(1,1)"><path fill="none" stroke="#000000" d="M 768 16 L 877 16 L 887 26 L 887 78 L 768 78 L 768 16 L 768 16" stroke-miterlimit="10"/></g><g transform="translate(-33.1170654296875,-6) scale(1,1)"><path fill="none" stroke="#000000" d="M 877 16 L 877 26 L 887 26 L 877 16" stroke-miterlimit="10"/></g><g transform="translate(-33.1170654296875,-6) scale(1,1)"><g><path fill="none" stroke="none"/><text fill="#000000" stroke="none" font-family="Arial" font-size="13px" font-style="normal" font-weight="normal" text-decoration="none" x="773" y="34">Interface to</text><text fill="#000000" stroke="none" font-family="Arial" font-size="13px" font-style="normal" font-weight="normal" text-decoration="none" x="773" y="47">SPHExa library</text></g></g><g transform="translate(-33.1170654296875,-6) scale(1,1)"><path fill="none" stroke="#000000" d="M 767 47 L 757 47" stroke-miterlimit="10" stroke-dasharray="3"/></g><g transform="translate(-33.1170654296875,-6) scale(1,1)"><rect fill="#C0C0C0" stroke="none" x="50.1170654296875" y="418.5" width="72.00048828125" height="44" opacity="0.2"/></g><g transform="translate(-33.1170654296875,-6) scale(1,1)"><rect fill="#ffffff" stroke="none" x="43.1170654296875" y="411.5" width="72.00048828125" height="44"/></g><g transform="translate(-33.1170654296875,-6) scale(1,1)"><path fill="none" stroke="#000000" d="M 43.1170654296875 411.5 L 115.1175537109375 411.5 L 115.1175537109375 455.5 L 43.1170654296875 455.5 L 43.1170654296875 411.5 Z Z" stroke-miterlimit="10"/></g><g transform="translate(-33.1170654296875,-6) scale(1,1)"><path fill="none" stroke="#000000" d="M 43.1170654296875 436.5 L 115.1175537109375 436.5" stroke-miterlimit="10"/></g><g transform="translate(-33.1170654296875,-6) scale(1,1)"><path fill="none" stroke="#000000" d="M 43.1170654296875 446.5 L 115.1175537109375 446.5" stroke-miterlimit="10"/></g><g transform="translate(-33.1170654296875,-6) scale(1,1)"><g><path fill="none" stroke="none"/><text fill="#000000" stroke="none" font-family="Arial" font-size="13px" font-style="normal" font-weight="bold" text-decoration="none" x="52.6173095703125" y="431">Fractiling</text></g></g><g transform="translate(-33.1170654296875,-6) scale(1,1)"><path fill="none" stroke="#000000" d="M 78 411 Q 77 387 184 322" stroke-miterlimit="10"/></g><g transform="translate(-33.1170654296875,-6) scale(1,1)"><path fill="#FFFFFF" stroke="none" d="M 170.99976751820347 339.7480690617104 L 184 322 L 162.25766746861746 325.3572274416227"/></g><g transform="translate(-33.1170654296875,-6) scale(1,1)"><path fill="none" stroke="#000000" d="M 170.99976751820347 339.7480690617104 L 184 322 L 162.25766746861746 325.3572274416227 L 170.99976751820347 339.7480690617104" stroke-miterlimit="10"/></g><g transform="translate(-33.1170654296875,-6) scale(1,1)"><rect fill="#C0C0C0" stroke="none" x="148.6234130859375" y="418.5" width="175.69580078125" height="44" opacity="0.2"/></g><g transform="translate(-33.1170654296875,-6) scale(1,1)"><rect fill="#ffffff" stroke="none" x="141.6234130859375" y="411.5" width="175.69580078125" height="44"/></g><g transform="translate(-33.1170654296875,-6) scale(1,1)"><path fill="none" stroke="#000000" d="M 141.6234130859375 411.5 L 317.3192138671875 411.5 L 317.3192138671875 455.5 L 141.6234130859375 455.5 L 141.6234130859375 411.5 Z Z" stroke-miterlimit="10"/></g><g transform="translate(-33.1170654296875,-6) scale(1,1)"><path fill="none" stroke="#000000" d="M 141.6234130859375 436.5 L 317.3192138671875 436.5" stroke-miterlimit="10"/></g><g transform="translate(-33.1170654296875,-6) scale(1,1)"><path fill="none" stroke="#000000" d="M 141.6234130859375 446.5 L 317.3192138671875 446.5" stroke-miterlimit="10"/></g><g transform="translate(-33.1170654296875,-6) scale(1,1)"><g><path fill="none" stroke="none"/><text fill="#000000" stroke="none" font-family="Arial" font-size="13px" font-style="normal" font-weight="bold" text-decoration="none" x="156.4713134765625" y="431">OtherLoadBalancingTech</text></g></g><g transform="translate(-33.1170654296875,-6) scale(1,1)"><path fill="none" stroke="#000000" d="M 228 411 Q 226 387 224 322" stroke-miterlimit="10"/></g><g transform="translate(-33.1170654296875,-6) scale(1,1)"><path fill="#FFFFFF" stroke="none" d="M 233.04015253812514 342.0568103667415 L 224 322 L 216.2100465433735 342.5746597819646"/></g><g transform="translate(-33.1170654296875,-6) scale(1,1)"><path fill="none" stroke="#000000" d="M 233.04015253812514 342.0568103667415 L 224 322 L 216.2100465433735 342.5746597819646 L 233.04015253812514 342.0568103667415" stroke-miterlimit="10"/></g><g transform="translate(-33.1170654296875,-6) scale(1,1)"><path fill="#ffffff" stroke="none" d="M 312 248 L 388.77685546875 248 L 398.77685546875 258 L 398.77685546875 310 L 312 310 L 312 248"/></g><g transform="translate(-33.1170654296875,-6) scale(1,1)"><path fill="none" stroke="#000000" d="M 312 248 L 388.77685546875 248 L 398.77685546875 258 L 398.77685546875 310 L 312 310 L 312 248 L 312 248" stroke-miterlimit="10"/></g><g transform="translate(-33.1170654296875,-6) scale(1,1)"><path fill="none" stroke="#000000" d="M 388.77685546875 248 L 388.77685546875 258 L 398.77685546875 258 L 388.77685546875 248" stroke-miterlimit="10"/></g><g transform="translate(-33.1170654296875,-6) scale(1,1)"><g><path fill="none" stroke="none"/><text fill="#000000" stroke="none" font-family="Arial" font-size="13px" font-style="normal" font-weight="normal" text-decoration="none" x="317" y="266">Interface to</text><text fill="#000000" stroke="none" font-family="Arial" font-size="13px" font-style="normal" font-weight="normal" text-decoration="none" x="317" y="279">load</text><text fill="#000000" stroke="none" font-family="Arial" font-size="13px" font-style="normal" font-weight="normal" text-decoration="none" x="317" y="292">balancing</text><text fill="#000000" stroke="none" font-family="Arial" font-size="13px" font-style="normal" font-weight="normal" text-decoration="none" x="317" y="305">techniques</text></g></g><g transform="translate(-33.1170654296875,-6) scale(1,1)"><path fill="none" stroke="#000000" d="M 330 312 Q 312 336 278 321" stroke-miterlimit="10" stroke-dasharray="3"/></g><g transform="translate(-33.1170654296875,-6) scale(1,1)"><rect fill="#C0C0C0" stroke="none" x="1239" y="431" width="103" height="55" opacity="0.2"/></g><g transform="translate(-33.1170654296875,-6) scale(1,1)"><rect fill="#ffffff" stroke="none" x="1232" y="424" width="103" height="55"/></g><g transform="translate(-33.1170654296875,-6) scale(1,1)"><path fill="none" stroke="#000000" d="M 1232 424 L 1335 424 L 1335 479 L 1232 479 L 1232 424 Z Z" stroke-miterlimit="10"/></g><g transform="translate(-33.1170654296875,-6) scale(1,1)"><path fill="none" stroke="#000000" d="M 1232 449 L 1335 449" stroke-miterlimit="10"/></g><g transform="translate(-33.1170654296875,-6) scale(1,1)"><path fill="none" stroke="#000000" d="M 1232 459 L 1335 459" stroke-miterlimit="10"/></g><g transform="translate(-33.1170654296875,-6) scale(1,1)"><g><path fill="none" stroke="none"/><text fill="#000000" stroke="none" font-family="Arial" font-size="13px" font-style="normal" font-weight="bold" text-decoration="none" x="1243.5" y="443.5">DataStructure</text></g></g><g transform="translate(-33.1170654296875,-6) scale(1,1)"><path fill="none" stroke="#000000" d="M 1255 423 L 1232 400 L 984 320 L 884 296 L 877 295" stroke-miterlimit="10"/></g><g transform="translate(-33.1170654296875,-6) scale(1,1)"><path fill="#FFFFFF" stroke="none" d="M 887.6558505397089 292.2700092902383 L 877 295 L 886.4652191193873 300.60442923248974 L 898.7788888605456 298.1112698372208"/></g><g transform="translate(-33.1170654296875,-6) scale(1,1)"><path fill="none" stroke="#000000" d="M 887.6558505397089 292.2700092902383 L 877 295 L 886.4652191193873 300.60442923248974 L 898.7788888605456 298.1112698372208 L 887.6558505397089 292.2700092902383" stroke-miterlimit="10"/></g><g transform="translate(-33.1170654296875,-6) scale(1,1)"><path fill="#ffffff" stroke="none" d="M 1296 528 L 1404 528 L 1414 538 L 1414 655 L 1296 655 L 1296 528"/></g><g transform="translate(-33.1170654296875,-6) scale(1,1)"><path fill="none" stroke="#000000" d="M 1296 528 L 1404 528 L 1414 538 L 1414 655 L 1296 655 L 1296 528 L 1296 528" stroke-miterlimit="10"/></g><g transform="translate(-33.1170654296875,-6) scale(1,1)"><path fill="none" stroke="#000000" d="M 1404 528 L 1404 538 L 1414 538 L 1404 528" stroke-miterlimit="10"/></g><g transform="translate(-33.1170654296875,-6) scale(1,1)"><g><path fill="none" stroke="none"/><text fill="#000000" stroke="none" font-family="Arial" font-size="13px" font-style="normal" font-weight="normal" text-decoration="none" x="1301" y="546">Interface for the</text><text fill="#000000" stroke="none" font-family="Arial" font-size="13px" font-style="normal" font-weight="normal" text-decoration="none" x="1301" y="559">data structure</text><text fill="#000000" stroke="none" font-family="Arial" font-size="13px" font-style="normal" font-weight="normal" text-decoration="none" x="1301" y="572">used to navigate</text><text fill="#000000" stroke="none" font-family="Arial" font-size="13px" font-style="normal" font-weight="normal" text-decoration="none" x="1301" y="585">the space (storing</text><text fill="#000000" stroke="none" font-family="Arial" font-size="13px" font-style="normal" font-weight="normal" text-decoration="none" x="1301" y="598">the neighbours of</text><text fill="#000000" stroke="none" font-family="Arial" font-size="13px" font-style="normal" font-weight="normal" text-decoration="none" x="1301" y="611">each particle): list,</text><text fill="#000000" stroke="none" font-family="Arial" font-size="13px" font-style="normal" font-weight="normal" text-decoration="none" x="1301" y="624">Octree, etc.</text></g></g><g transform="translate(-33.1170654296875,-6) scale(1,1)"><path fill="none" stroke="#000000" d="M 1322 527 L 1298 480" stroke-miterlimit="10" stroke-dasharray="3"/></g></g></svg>